<?xml version="1.0" encoding="utf-8"?>
<!-- Generator: Adobe Illustrator 26.1.0, SVG Export Plug-In . SVG Version: 6.00 Build 0)  -->
<svg version="1.1" id="Capa_1" xmlns="http://www.w3.org/2000/svg" xmlns:xlink="http://www.w3.org/1999/xlink" x="0px" y="0px"
	 viewBox="0 0 137.26 42.52" style="enable-background:new 0 0 137.26 42.52;" xml:space="preserve">
<style type="text/css">
	.st0{fill:#DADADA;}
	.st1{fill:#E52822;}
	.st2{fill:#FFFFFF;}
	.st3{fill:none;stroke:#FFFFFF;stroke-miterlimit:10;}
	.st4{fill:#E25A68;}
	.st5{fill:#E30613;}
</style>
<g>
	<path class="st0" d="M119.3,23.79H17.97c-1.4,0-2.53-1.13-2.53-2.53v0c0-1.4,1.13-2.53,2.53-2.53H119.3c1.4,0,2.53,1.13,2.53,2.53
		v0C121.83,22.66,120.69,23.79,119.3,23.79z"/>
	<path class="st4" d="M82.8,23.79H17.97c-1.4,0-2.53-1.13-2.53-2.53v0c0-1.4,1.13-2.53,2.53-2.53H82.8c1.4,0,2.53,1.13,2.53,2.53v0
		C85.33,22.66,84.2,23.79,82.8,23.79z"/>
	<circle class="st5" cx="82.06" cy="21.26" r="6.34"/>
</g>
</svg>
