<?xml version="1.0" encoding="utf-8"?>
<!-- Generator: Adobe Illustrator 26.1.0, SVG Export Plug-In . SVG Version: 6.00 Build 0)  -->
<svg version="1.1" id="Capa_1" xmlns="http://www.w3.org/2000/svg" xmlns:xlink="http://www.w3.org/1999/xlink" x="0px" y="0px"
	 viewBox="0 0 42.52 42.52" style="enable-background:new 0 0 42.52 42.52;" xml:space="preserve">
<style type="text/css">
	.st0{fill:#DADADA;}
	.st1{fill:#E52822;}
	.st2{fill:#FFFFFF;}
	.st3{fill:none;stroke:#FFFFFF;stroke-miterlimit:10;}
</style>
<g id="MBOwUc_00000065759241638378410050000011755874654685269397_">
	<g>
		<path class="st2" d="M28.4,28.18c-0.13,0.01-0.25-0.05-0.37-0.09c-0.68-0.27-1.36-0.54-2.04-0.82c-0.16-0.07-0.28-0.05-0.43,0.05
			c-0.39,0.29-0.81,0.54-1.26,0.73c-0.13,0.06-0.2,0.13-0.22,0.29c-0.1,0.77-0.21,1.54-0.33,2.31c-0.05,0.35-0.25,0.53-0.61,0.54
			c-1.27,0.01-2.53,0.01-3.8,0c-0.36,0-0.56-0.18-0.61-0.54c-0.11-0.78-0.22-1.55-0.33-2.33c-0.02-0.12-0.07-0.2-0.18-0.24
			c-0.48-0.2-0.92-0.47-1.34-0.77c-0.12-0.09-0.23-0.09-0.36-0.03c-0.7,0.29-1.4,0.57-2.1,0.84c-0.4,0.16-0.63,0.08-0.85-0.3
			c-0.61-1.06-1.22-2.11-1.83-3.17c-0.23-0.4-0.19-0.61,0.17-0.89c0.6-0.47,1.19-0.93,1.79-1.39c0.13-0.1,0.16-0.2,0.14-0.36
			c-0.06-0.48-0.06-0.97,0-1.45c0.02-0.16-0.01-0.26-0.14-0.36c-0.61-0.47-1.21-0.94-1.81-1.41c-0.35-0.27-0.39-0.48-0.17-0.86
			c0.62-1.07,1.23-2.14,1.85-3.21c0.21-0.37,0.43-0.45,0.83-0.29c0.7,0.28,1.39,0.55,2.08,0.84c0.17,0.07,0.3,0.06,0.45-0.05
			c0.39-0.29,0.81-0.54,1.26-0.73c0.14-0.06,0.19-0.14,0.21-0.29c0.1-0.77,0.21-1.54,0.33-2.31c0.05-0.34,0.24-0.53,0.59-0.53
			c1.27-0.01,2.55-0.01,3.82,0c0.36,0,0.55,0.19,0.6,0.55c0.11,0.78,0.22,1.55,0.33,2.33c0.02,0.13,0.08,0.19,0.18,0.24
			c0.47,0.2,0.91,0.46,1.32,0.76c0.13,0.09,0.24,0.1,0.38,0.04c0.69-0.28,1.39-0.56,2.08-0.84c0.42-0.17,0.64-0.09,0.86,0.3
			c0.61,1.05,1.21,2.1,1.82,3.15c0.24,0.42,0.2,0.62-0.19,0.93c-0.58,0.46-1.16,0.92-1.75,1.37c-0.13,0.1-0.17,0.21-0.15,0.37
			c0.06,0.48,0.06,0.95,0,1.43c-0.02,0.16,0.01,0.27,0.15,0.38c0.6,0.46,1.19,0.93,1.79,1.39c0.35,0.28,0.4,0.49,0.17,0.88
			c-0.62,1.07-1.23,2.14-1.85,3.21C28.8,28.02,28.67,28.19,28.4,28.18z M21.26,24.68c1.91,0,3.42-1.52,3.41-3.43
			c0-1.9-1.51-3.41-3.41-3.41c-1.91,0-3.43,1.51-3.43,3.42C17.84,23.17,19.35,24.68,21.26,24.68z"/>
	</g>
</g>
</svg>
