<?xml version="1.0" encoding="utf-8"?>
<!-- Generator: Adobe Illustrator 26.1.0, SVG Export Plug-In . SVG Version: 6.00 Build 0)  -->
<svg version="1.1" id="Capa_1" xmlns="http://www.w3.org/2000/svg" xmlns:xlink="http://www.w3.org/1999/xlink" x="0px" y="0px"
	 viewBox="0 0 42.52 42.52" style="enable-background:new 0 0 42.52 42.52;" xml:space="preserve">
<style type="text/css">
	.st0{fill:#DADADA;}
	.st1{fill:#E52822;}
	.st2{fill:#FFFFFF;}
	.st3{fill:none;stroke:#FFFFFF;stroke-miterlimit:10;}
</style>
<g>
	<path class="st2" d="M32.45,32.23H10.07c-1.95,0-3.54-1.59-3.54-3.54V13.83c0-1.95,1.59-3.54,3.54-3.54h22.37
		c1.95,0,3.54,1.59,3.54,3.54v14.85C35.99,30.64,34.4,32.23,32.45,32.23z M10.07,12.39c-0.8,0-1.44,0.65-1.44,1.44v14.85
		c0,0.8,0.65,1.44,1.44,1.44h22.37c0.8,0,1.44-0.65,1.44-1.44V13.83c0-0.8-0.65-1.44-1.44-1.44H10.07z"/>
</g>
<path class="st2" d="M31.08,28.55H20.55c-0.56,0-1.02-0.46-1.02-1.02v-7.89c0-0.56,0.46-1.02,1.02-1.02h10.53
	c0.56,0,1.02,0.46,1.02,1.02v7.89C32.1,28.1,31.64,28.55,31.08,28.55z"/>
</svg>
