<?xml version="1.0" encoding="utf-8"?>
<!-- Generator: Adobe Illustrator 26.1.0, SVG Export Plug-In . SVG Version: 6.00 Build 0)  -->
<svg version="1.1" id="Capa_1" xmlns="http://www.w3.org/2000/svg" xmlns:xlink="http://www.w3.org/1999/xlink" x="0px" y="0px"
	 viewBox="0 0 42.52 42.52" style="enable-background:new 0 0 42.52 42.52;" xml:space="preserve">
<style type="text/css">
	.st0{fill:#DADADA;}
	.st1{fill:#E52822;}
	.st2{fill:#FFFFFF;}
	.st3{fill:none;stroke:#FFFFFF;stroke-miterlimit:10;}
</style>
<g>
	<path class="st2" d="M18.33,32.23h-6.99c-0.58,0-1.05-0.47-1.05-1.05v-6.99c0-0.58,0.47-1.05,1.05-1.05s1.05,0.47,1.05,1.05v5.94
		h5.94c0.58,0,1.05,0.47,1.05,1.05S18.91,32.23,18.33,32.23z"/>
</g>
<g>
	<path class="st2" d="M31.18,19.38c-0.58,0-1.05-0.47-1.05-1.05v-5.94h-5.94c-0.58,0-1.05-0.47-1.05-1.05s0.47-1.05,1.05-1.05h6.99
		c0.58,0,1.05,0.47,1.05,1.05v6.99C32.23,18.91,31.76,19.38,31.18,19.38z"/>
</g>
<g>
	<path class="st2" d="M31.18,32.23h-6.99c-0.58,0-1.05-0.47-1.05-1.05s0.47-1.05,1.05-1.05h5.94v-5.94c0-0.58,0.47-1.05,1.05-1.05
		s1.05,0.47,1.05,1.05v6.99C32.23,31.76,31.76,32.23,31.18,32.23z"/>
</g>
<g>
	<path class="st2" d="M11.34,19.38c-0.58,0-1.05-0.47-1.05-1.05v-6.99c0-0.58,0.47-1.05,1.05-1.05h6.99c0.58,0,1.05,0.47,1.05,1.05
		s-0.47,1.05-1.05,1.05h-5.94v5.94C12.39,18.91,11.92,19.38,11.34,19.38z"/>
</g>
</svg>
