<?xml version="1.0" encoding="utf-8"?>
<!-- Generator: Adobe Illustrator 26.1.0, SVG Export Plug-In . SVG Version: 6.00 Build 0)  -->
<svg version="1.1" id="Capa_1" xmlns="http://www.w3.org/2000/svg" xmlns:xlink="http://www.w3.org/1999/xlink" x="0px" y="0px"
	 viewBox="0 0 42.52 42.52" style="enable-background:new 0 0 42.52 42.52;" xml:space="preserve">
<style type="text/css">
	.st0{fill:#DADADA;}
	.st1{fill:#E52822;}
	.st2{fill:#FFFFFF;}
	.st3{fill:none;stroke:#FFFFFF;stroke-miterlimit:10;}
</style>
<path class="st2" d="M10.84,31.76c-0.61,0-1.11-0.2-1.5-0.59c-0.39-0.39-0.59-0.9-0.59-1.51v-16.8c0-0.61,0.2-1.12,0.59-1.51
	c0.39-0.39,0.89-0.59,1.5-0.59h20.83c0.61,0,1.11,0.2,1.5,0.59c0.39,0.39,0.59,0.9,0.59,1.51v16.8c0,0.61-0.2,1.12-0.59,1.51
	c-0.39,0.39-0.89,0.59-1.5,0.59H10.84z M16.05,23.88v-2.62h-4.17v2.62H16.05z M30.63,23.88v-2.62h-12.5v2.62H30.63z M24.38,28.61
	v-2.62h-12.5v2.62H24.38z M30.63,28.61v-2.62h-4.17v2.62H30.63z"/>
</svg>
