<?xml version="1.0" encoding="utf-8"?>
<!-- Generator: Adobe Illustrator 26.1.0, SVG Export Plug-In . SVG Version: 6.00 Build 0)  -->
<svg version="1.1" id="Capa_1" xmlns="http://www.w3.org/2000/svg" xmlns:xlink="http://www.w3.org/1999/xlink" x="0px" y="0px"
	 viewBox="0 0 42.52 42.52" style="enable-background:new 0 0 42.52 42.52;" xml:space="preserve">
<style type="text/css">
	.st0{fill:#DADADA;}
	.st1{fill:#E52822;}
	.st2{fill:#FFFFFF;}
	.st3{fill:none;stroke:#FFFFFF;stroke-miterlimit:10;}
</style>
<g>
	<path class="st2" d="M11.34,13.56c0,1.1,0,2.18,0,3.28c-0.74,0-1.46,0-2.19,0c-0.01-0.05-0.02-0.09-0.02-0.13
		c0-1.12-0.01-2.24,0.01-3.36c0.02-1.04,1.01-1.99,2.06-1.99c1.86-0.01,3.72,0,5.58,0c4.79,0,9.58,0.01,14.38-0.01
		c0.9,0,1.95,0.61,2.19,1.8c0.03,0.16,0.03,0.33,0.03,0.49c0,5.09-0.01,10.19,0.01,15.28c0,1.22-0.86,2.08-1.81,2.24
		c-0.09,0.02-0.18,0.03-0.28,0.03c-2.55,0-5.1,0-7.65,0c-0.06,0-0.11-0.01-0.18-0.01c0-0.73,0-1.44,0-2.18c2.56,0,5.12,0,7.69,0
		c0-5.16,0-10.28,0-15.43C24.56,13.56,17.97,13.56,11.34,13.56z"/>
	<path class="st2" d="M9.14,21.25c0-0.73,0-1.45,0-2.16c5.87-0.24,12.15,4.87,12.1,12.07c-0.72,0-1.44,0-2.18,0
		c-0.06-2.71-1-5.06-2.92-6.99C14.22,22.26,11.87,21.32,9.14,21.25z"/>
	<path class="st2" d="M9.14,25.63c0-0.7,0-1.41,0-2.13c3.65-0.18,7.71,3.02,7.7,7.66c-0.72,0-1.44,0-2.15,0
		C14.33,27.84,12.5,26,9.14,25.63z"/>
	<path class="st2" d="M9.15,27.9c1.71-0.09,3.35,1.55,3.27,3.27c-1.09,0-2.17,0-3.27,0C9.15,30.08,9.15,29,9.15,27.9z"/>
</g>
</svg>
