<?xml version="1.0" encoding="utf-8"?>
<!-- Generator: Adobe Illustrator 26.1.0, SVG Export Plug-In . SVG Version: 6.00 Build 0)  -->
<svg version="1.1" id="Capa_1" xmlns="http://www.w3.org/2000/svg" xmlns:xlink="http://www.w3.org/1999/xlink" x="0px" y="0px"
	 viewBox="0 0 42.52 42.52" style="enable-background:new 0 0 42.52 42.52;" xml:space="preserve">
<style type="text/css">
	.st0{fill:#DADADA;}
	.st1{fill:#E52822;}
	.st2{fill:#FFFFFF;}
	.st3{fill:none;stroke:#FFFFFF;stroke-miterlimit:10;}
</style>
<g id="_x32_p2ufc_00000067195680863546460140000017233543838213761683_">
	<g>
		<path class="st2" d="M24.57,21.26c0,2.9,0,5.8,0,8.7c0,0.49-0.17,0.86-0.59,1.08c-0.44,0.23-0.88,0.16-1.29-0.12
			c-2.22-1.52-4.44-3.05-6.66-4.57c-0.19-0.13-0.37-0.19-0.6-0.18c-1.66,0.01-3.33,0-4.99,0c-0.85,0-1.3-0.45-1.3-1.3
			c0-2.4,0-4.8,0-7.2c0-0.85,0.45-1.3,1.3-1.3c1.67,0,3.34,0,5.02,0c0.2,0,0.36-0.04,0.53-0.16c2.14-1.48,4.29-2.96,6.44-4.43
			c0.12-0.08,0.24-0.17,0.36-0.24c0.38-0.24,0.77-0.26,1.17-0.05c0.4,0.22,0.6,0.56,0.6,1.03C24.56,15.43,24.57,18.35,24.57,21.26z"
			/>
		<path class="st2" d="M33.37,21.4c-0.12,2.88-1.32,5.38-3.67,7.29c-0.55,0.44-1.25,0.37-1.65-0.14c-0.4-0.52-0.3-1.19,0.25-1.64
			c1.59-1.3,2.54-2.97,2.75-5c0.2-1.98-0.44-3.73-1.69-5.26c-0.32-0.39-0.69-0.74-1.09-1.06c-0.53-0.43-0.61-1.11-0.21-1.62
			c0.38-0.48,1.07-0.57,1.58-0.16c1.65,1.3,2.77,2.96,3.35,4.97C33.23,19.59,33.35,20.42,33.37,21.4z"/>
		<path class="st2" d="M29.51,21.21c0,1.53-0.44,2.85-1.32,4.02c-0.54,0.71-1.62,0.57-1.95-0.25c-0.15-0.39-0.1-0.77,0.16-1.12
			c0.55-0.77,0.85-1.62,0.85-2.57c0-0.96-0.29-1.83-0.85-2.62c-0.45-0.63-0.24-1.43,0.44-1.73c0.49-0.22,1.03-0.08,1.37,0.38
			C29.08,18.5,29.52,19.81,29.51,21.21z"/>
	</g>
</g>
</svg>
