<?xml version="1.0" encoding="utf-8"?>
<!-- Generator: Adobe Illustrator 26.1.0, SVG Export Plug-In . SVG Version: 6.00 Build 0)  -->
<svg version="1.1" id="Capa_1" xmlns="http://www.w3.org/2000/svg" xmlns:xlink="http://www.w3.org/1999/xlink" x="0px" y="0px"
	 viewBox="0 0 219 123" style="enable-background:new 0 0 219 123;" xml:space="preserve">
<style type="text/css">
	.st0{fill:#E52421;}
	.st1{fill:#FFFFFF;}
</style>
<g>
	<path class="st0" d="M95.33,52.32c-0.22-0.81-0.64-1.54-1.23-2.14c-0.59-0.59-1.33-1.02-2.14-1.23c-2.98-0.8-14.91-0.8-14.91-0.8
		s-11.92,0-14.89,0.8c-0.81,0.22-1.54,0.64-2.14,1.23c-0.59,0.59-1.02,1.33-1.23,2.14c-0.8,2.98-0.8,9.18-0.8,9.18s0,6.2,0.8,9.18
		c0.22,0.81,0.64,1.54,1.23,2.14c0.59,0.59,1.33,1.02,2.14,1.23c2.98,0.8,14.89,0.8,14.89,0.8s11.92,0,14.9-0.8
		c0.81-0.22,1.54-0.64,2.14-1.23c0.59-0.59,1.02-1.33,1.23-2.14c0.8-2.98,0.8-9.18,0.8-9.18S96.12,55.3,95.33,52.32z"/>
	<path class="st1" d="M73.24,67.21l9.91-5.71l-9.91-5.72V67.21z"/>
	<path class="st1" d="M105.47,54.51v18.35h-3.25v-22.7h5.25c0.18,0.88,0.38,1.77,0.56,2.65c0.57,2.85,1.18,5.68,1.69,8.54
		c0.33,1.81,0.52,3.64,0.78,5.47c0.04,0.28,0.08,0.57,0.13,0.85c0.03,0.08,0.07,0.15,0.12,0.22c0.05-0.06,0.09-0.14,0.11-0.21
		c0.14-0.9,0.26-1.8,0.4-2.69c0.27-1.79,0.52-3.58,0.84-5.35c0.41-2.26,0.88-4.5,1.34-6.75c0.18-0.9,0.33-1.81,0.52-2.72h5.33v22.69
		h-3.25V54.46h-0.06c-0.17,0.82-0.33,1.64-0.5,2.46c-0.4,2.08-0.8,4.16-1.2,6.23c-0.46,2.42-0.92,4.83-1.38,7.25
		c-0.14,0.75-0.3,1.5-0.43,2.25c-0.03,0.17-0.09,0.24-0.27,0.24c-0.94,0-1.89,0-2.83-0.02c-0.06-0.01-0.11-0.03-0.15-0.07
		c-0.04-0.04-0.08-0.08-0.1-0.13c-0.33-1.63-0.67-3.26-0.97-4.89c-0.61-3.1-1.22-6.19-1.83-9.29c-0.24-1.25-0.46-2.5-0.7-3.76
		c0-0.07-0.04-0.14-0.06-0.21L105.47,54.51z"/>
	<path class="st1" d="M121.73,56.27h3.75v0.39c0,3.88,0,7.75,0,11.63c-0.01,0.41,0.02,0.82,0.08,1.23c0.13,0.86,0.65,1.16,1.48,0.91
		c0.32-0.08,0.59-0.27,0.79-0.53c0.2-0.26,0.3-0.58,0.29-0.91v-9.03c0-1.1,0-2.2,0-3.3v-0.39h3.71v16.58h-2.9
		c-0.1-0.65-0.21-1.34-0.33-2.09c-0.2,0.31-0.33,0.54-0.49,0.76c-0.54,0.77-1.34,1.32-2.26,1.53c-0.92,0.21-1.88,0.08-2.7-0.38
		c-0.31-0.2-0.57-0.46-0.76-0.77c-0.2-0.31-0.33-0.65-0.38-1.01c-0.15-0.77-0.24-1.55-0.26-2.34c-0.03-2.13,0-4.26,0-6.4
		c0-1.81,0-3.62,0-5.43L121.73,56.27z"/>
	<path class="st1" d="M137,67.78c0.05,0.53,0.07,1.04,0.16,1.53c0.03,0.23,0.11,0.44,0.24,0.64c0.12,0.19,0.29,0.36,0.48,0.48
		c0.28,0.16,0.6,0.24,0.92,0.21c0.32-0.02,0.63-0.14,0.88-0.34c0.22-0.23,0.38-0.51,0.44-0.83c0.06-0.31,0.02-0.64-0.1-0.93
		c-0.3-0.61-0.74-1.14-1.29-1.54c-1.02-0.84-2.09-1.61-3.07-2.51c-1.87-1.71-2.19-3.84-1.44-6.18c0.16-0.48,0.43-0.91,0.79-1.26
		c0.36-0.35,0.8-0.61,1.28-0.75c1.27-0.42,2.63-0.48,3.94-0.18c0.71,0.11,1.36,0.44,1.86,0.95c0.5,0.51,0.82,1.17,0.91,1.88
		c0.12,0.9,0.2,1.81,0.22,2.72l-3.19,0.15c-0.04-0.47-0.06-0.93-0.1-1.37c-0.03-0.31-0.08-0.62-0.15-0.93
		c-0.17-0.7-0.61-1-1.34-0.93s-1.21,0.43-1.29,1.13c-0.13,1.08,0.37,1.86,1.17,2.49c1.06,0.83,2.13,1.63,3.16,2.49
		c1.03,0.86,1.68,1.84,1.83,3.18c0.14,0.99,0.04,2-0.3,2.95c-0.56,1.4-1.69,2.05-3.1,2.3c-1.03,0.19-2.08,0.18-3.1-0.04
		c-1.75-0.38-2.84-1.6-2.96-3.38c-0.04-0.55,0-1.11,0.02-1.67c0-0.17,0.07-0.26,0.26-0.26c0.94,0,1.89,0,2.83-0.02
		C136.98,67.76,137.01,67.78,137,67.78z"/>
	<path class="st1" d="M157.76,66.72l3.23,0.16c0.03,0.5,0.03,1,0,1.5c-0.08,0.77-0.23,1.53-0.44,2.27c-0.46,1.42-1.5,2.19-2.98,2.39
		c-0.98,0.14-1.98,0.12-2.95-0.06c-1.44-0.28-2.31-1.19-2.76-2.54c-0.41-1.36-0.6-2.78-0.58-4.2c-0.02-1.53,0-3.06,0.08-4.59
		c0.02-1.15,0.26-2.28,0.71-3.34c0.27-0.64,0.7-1.18,1.26-1.58c0.56-0.4,1.22-0.64,1.91-0.68c0.88-0.09,1.77-0.07,2.65,0.07
		c1.74,0.31,2.7,1.42,2.94,3.19c0.15,1.01,0.16,2.04,0.03,3.06l-3.26,0.23c0-0.54,0.04-1.06,0-1.57c-0.06-0.65-0.17-1.29-0.33-1.92
		c-0.12-0.46-0.52-0.63-1-0.61c-0.21-0.01-0.42,0.05-0.59,0.18c-0.17,0.13-0.29,0.31-0.34,0.51c-0.14,0.45-0.23,0.92-0.25,1.4
		c-0.02,2.74-0.01,5.48,0.02,8.22c0.03,0.4,0.11,0.79,0.25,1.16c0.05,0.17,0.14,0.32,0.28,0.43c0.13,0.11,0.3,0.18,0.47,0.19
		c0.2,0.04,0.4,0.03,0.59-0.04c0.19-0.07,0.36-0.19,0.48-0.34c0.29-0.46,0.45-0.98,0.45-1.52
		C157.69,68.05,157.71,67.41,157.76,66.72z"/>
	<path class="st1" d="M145.44,56.27c0.07-0.01,0.14-0.02,0.21-0.03h3.32v16.6h-3.53V56.27z"/>
	<path class="st1" d="M145.14,51.89c0.09-0.43,0.16-0.87,0.28-1.28c0.06-0.19,0.17-0.36,0.31-0.5c0.15-0.14,0.32-0.23,0.52-0.28
		c0.61-0.18,1.26-0.18,1.87,0c0.24,0.07,0.46,0.21,0.63,0.39c0.17,0.18,0.29,0.41,0.34,0.66c0.18,0.68,0.21,1.39,0.07,2.07
		c-0.16,0.84-0.54,1.22-1.39,1.34c-0.39,0.06-0.8,0.06-1.19,0c-0.84-0.13-1.26-0.61-1.34-1.45c-0.03-0.3-0.04-0.6-0.06-0.89
		L145.14,51.89z"/>
</g>
<g>
	<path class="st0" d="M174.76-96.73c-0.22-0.81-0.64-1.54-1.23-2.14c-0.59-0.59-1.33-1.02-2.14-1.23c-2.98-0.8-14.91-0.8-14.91-0.8
		s-11.92,0-14.89,0.8c-0.81,0.22-1.54,0.64-2.14,1.23c-0.59,0.59-1.02,1.33-1.23,2.14c-0.8,2.98-0.8,9.18-0.8,9.18s0,6.2,0.8,9.18
		c0.22,0.81,0.64,1.54,1.23,2.14s1.33,1.02,2.14,1.23c2.98,0.8,14.89,0.8,14.89,0.8s11.92,0,14.9-0.8c0.81-0.22,1.54-0.64,2.14-1.23
		s1.02-1.33,1.23-2.14c0.8-2.98,0.8-9.18,0.8-9.18S175.56-93.76,174.76-96.73z"/>
	<path class="st1" d="M152.68-81.84l9.91-5.71l-9.91-5.72V-81.84z"/>
	<path class="st1" d="M192.5-92.43v0.92c0,4.61-2.04,7.31-6.52,7.31h-0.67v8.07h-3.66V-99h4.66C190.57-99,192.5-97.2,192.5-92.43z
		 M188.66-92.1c0-3.33-0.6-4.12-2.67-4.12h-0.67v9.29h0.63c1.96,0,2.73-1.42,2.73-4.5L188.66-92.1z M201.15-93.1l-0.19,4.35
		c-1.55-0.33-2.84-0.08-3.41,0.92v11.7h-3.62v-16.72h2.89l0.33,3.62h0.12c0.38-2.64,1.61-3.98,3.19-3.98
		c0.23,0.01,0.45,0.04,0.67,0.09L201.15-93.1z M205.31-83.21v0.84c0,2.95,0.16,3.96,1.42,3.96c1.2,0,1.47-0.92,1.5-2.84l3.25,0.19
		c0.24,3.6-1.64,5.21-4.83,5.21c-3.87,0-5.02-2.53-5.02-7.14v-2.92c0-4.86,1.28-7.23,5.13-7.23c3.84,0,4.85,2.01,4.85,7.06v2.87
		L205.31-83.21z M205.31-86.65v1.2h2.76v-1.2c0-3.07-0.22-3.95-1.38-3.95C205.52-90.6,205.31-89.7,205.31-86.65L205.31-86.65z
		 M230.35-88.75v12.61h-3.76v-12.34c0-1.36-0.36-2.05-1.17-2.05c-0.35,0.01-0.69,0.12-0.99,0.31c-0.29,0.19-0.53,0.46-0.69,0.78
		c0.02,0.22,0.03,0.45,0.03,0.67v12.64h-3.76v-12.35c0-1.36-0.36-2.05-1.17-2.05c-0.34,0.01-0.68,0.12-0.96,0.31
		c-0.29,0.19-0.52,0.45-0.67,0.76v13.33h-3.76v-16.72h2.97l0.33,2.13h0.05c0.85-1.61,2.21-2.48,3.82-2.48
		c1.61,0,2.48,0.79,2.89,2.21c0.87-1.44,2.18-2.21,3.68-2.21c2.29,0,3.16,1.64,3.16,4.44V-88.75z M232.23-97.11
		c0-1.8,0.65-2.32,2.04-2.32c1.39,0,2.05,0.6,2.05,2.32c0,1.86-0.63,2.32-2.05,2.32c-1.42,0-2.04-0.47-2.04-2.33V-97.11z
		 M232.44-92.83h3.61v16.72h-3.61V-92.83z M248.34-92.83v16.72h-2.94l-0.33-2.05h-0.08c-0.85,1.64-2.07,2.32-3.6,2.32
		c-2.23,0-3.24-1.42-3.24-4.5v-12.51h3.76v12.27c0,1.47,0.31,2.07,1.06,2.07c0.34-0.01,0.67-0.12,0.95-0.31
		c0.28-0.19,0.51-0.45,0.65-0.76v-13.28L248.34-92.83z M267.42-88.76v12.62h-3.76v-12.34c0-1.36-0.35-2.05-1.17-2.05
		c-0.35,0.01-0.69,0.12-0.99,0.31c-0.29,0.19-0.53,0.46-0.68,0.78c0.02,0.22,0.03,0.45,0.03,0.67v12.63h-3.75v-12.34
		c0-1.36-0.35-2.05-1.17-2.05c-0.34,0.01-0.68,0.12-0.96,0.31c-0.29,0.19-0.52,0.45-0.67,0.76v13.33h-3.76v-16.72h2.97l0.33,2.13
		h0.05c0.85-1.61,2.21-2.48,3.81-2.48c1.61,0,2.48,0.79,2.89,2.21c0.87-1.45,2.18-2.21,3.68-2.21
		C266.56-93.19,267.42-91.56,267.42-88.76z"/>
</g>
</svg>
