<?xml version="1.0" encoding="utf-8"?>
<!-- Generator: Adobe Illustrator 26.1.0, SVG Export Plug-In . SVG Version: 6.00 Build 0)  -->
<svg version="1.1" id="Capa_1" xmlns="http://www.w3.org/2000/svg" xmlns:xlink="http://www.w3.org/1999/xlink" x="0px" y="0px"
	 viewBox="0 0 219 123" style="enable-background:new 0 0 219 123;" xml:space="preserve">
<style type="text/css">
	.st0{fill:#E52421;}
	.st1{fill:#FFFFFF;}
</style>
<path class="st0" d="M318.6,23.65c-0.16-0.61-0.48-1.16-0.93-1.6c-0.44-0.44-0.99-0.76-1.6-0.93c-2.23-0.6-11.17-0.6-11.17-0.6
	s-8.93,0-11.16,0.6c-0.61,0.16-1.16,0.48-1.6,0.93c-0.44,0.44-0.76,0.99-0.93,1.6c-0.6,2.23-0.6,6.88-0.6,6.88s0,4.65,0.6,6.88
	c0.16,0.61,0.48,1.16,0.93,1.6c0.44,0.44,1,0.76,1.6,0.93c2.23,0.6,11.16,0.6,11.16,0.6s8.93,0,11.16-0.6
	c0.61-0.16,1.16-0.48,1.6-0.93c0.44-0.44,0.76-1,0.93-1.6c0.6-2.23,0.6-6.88,0.6-6.88S319.2,25.88,318.6,23.65z"/>
<path class="st1" d="M302.06,34.81l7.42-4.28l-7.42-4.29V34.81z"/>
<path class="st1" d="M326.2,25.29v13.75h-2.43V22.03h3.94c0.14,0.66,0.28,1.32,0.42,1.99c0.43,2.13,0.88,4.26,1.27,6.4
	c0.25,1.36,0.39,2.73,0.58,4.1c0.03,0.21,0.06,0.43,0.1,0.64c0.02,0.06,0.05,0.11,0.09,0.17c0.04-0.05,0.07-0.1,0.08-0.16
	c0.1-0.67,0.2-1.35,0.3-2.02c0.21-1.34,0.39-2.68,0.63-4.01c0.31-1.69,0.66-3.37,1-5.06c0.14-0.68,0.25-1.35,0.39-2.04h3.99v17
	h-2.44V25.25h-0.05c-0.13,0.61-0.25,1.23-0.37,1.84c-0.3,1.56-0.6,3.11-0.9,4.67c-0.35,1.81-0.69,3.62-1.03,5.43
	c-0.11,0.56-0.22,1.12-0.33,1.69c-0.02,0.13-0.07,0.18-0.21,0.18c-0.71,0-1.42,0-2.12-0.02c-0.04-0.01-0.08-0.03-0.11-0.05
	c-0.03-0.03-0.06-0.06-0.07-0.1c-0.25-1.22-0.5-2.44-0.73-3.67c-0.46-2.32-0.92-4.64-1.37-6.96c-0.18-0.94-0.35-1.88-0.52-2.82
	c0-0.05-0.03-0.11-0.04-0.16L326.2,25.29z"/>
<path class="st1" d="M338.38,26.61h2.81v0.3c0,2.9,0,5.81,0,8.71c0,0.31,0.02,0.61,0.06,0.92c0.1,0.64,0.49,0.87,1.11,0.68
	c0.24-0.06,0.45-0.2,0.59-0.4c0.15-0.2,0.22-0.44,0.22-0.68v-6.76c0-0.82,0-1.65,0-2.47v-0.29h2.78v12.42h-2.17
	c-0.08-0.49-0.16-1-0.25-1.57c-0.15,0.23-0.25,0.4-0.37,0.57c-0.4,0.58-1,0.99-1.69,1.15s-1.41,0.06-2.02-0.29
	c-0.23-0.15-0.43-0.34-0.57-0.57s-0.24-0.49-0.28-0.76c-0.12-0.58-0.18-1.16-0.19-1.75c-0.03-1.6,0-3.19,0-4.79
	c0-1.36,0-2.71,0-4.07L338.38,26.61z"/>
<path class="st1" d="M349.83,35.24c0.04,0.4,0.05,0.78,0.12,1.15c0.02,0.17,0.08,0.33,0.18,0.48c0.09,0.14,0.22,0.27,0.36,0.36
	c0.21,0.12,0.45,0.18,0.69,0.16c0.24-0.02,0.47-0.11,0.66-0.25c0.17-0.17,0.28-0.38,0.33-0.62c0.04-0.23,0.02-0.48-0.08-0.7
	c-0.22-0.46-0.55-0.85-0.96-1.15c-0.76-0.63-1.57-1.21-2.3-1.88c-1.4-1.28-1.64-2.88-1.08-4.63c0.12-0.36,0.32-0.68,0.59-0.94
	c0.27-0.26,0.6-0.45,0.96-0.56c0.95-0.31,1.97-0.36,2.95-0.14c0.53,0.08,1.02,0.33,1.39,0.71c0.37,0.38,0.61,0.88,0.68,1.41
	c0.09,0.68,0.15,1.36,0.17,2.04l-2.39,0.11c-0.03-0.36-0.05-0.69-0.08-1.03c-0.02-0.23-0.06-0.47-0.11-0.7
	c-0.13-0.52-0.45-0.75-1-0.7c-0.55,0.05-0.91,0.33-0.97,0.85c-0.1,0.81,0.28,1.39,0.88,1.87c0.79,0.62,1.6,1.22,2.37,1.87
	c0.77,0.65,1.26,1.38,1.37,2.38c0.11,0.74,0.03,1.5-0.22,2.21c-0.42,1.05-1.27,1.53-2.32,1.73c-0.77,0.14-1.56,0.13-2.33-0.03
	c-1.31-0.28-2.13-1.2-2.21-2.53c-0.03-0.41,0-0.83,0.01-1.25c0-0.13,0.05-0.2,0.2-0.2c0.71,0,1.42,0,2.12-0.01
	C349.81,35.22,349.83,35.24,349.83,35.24z"/>
<path class="st1" d="M365.38,34.44l2.42,0.12c0.02,0.38,0.02,0.75,0,1.13c-0.06,0.58-0.17,1.15-0.33,1.7
	c-0.34,1.07-1.12,1.64-2.23,1.79c-0.73,0.1-1.48,0.09-2.21-0.04c-1.08-0.21-1.73-0.89-2.07-1.9c-0.31-1.02-0.45-2.08-0.43-3.15
	c-0.01-1.15,0-2.29,0.06-3.44c0.02-0.86,0.2-1.71,0.53-2.51c0.2-0.48,0.53-0.89,0.95-1.19c0.42-0.3,0.91-0.48,1.43-0.51
	c0.66-0.07,1.33-0.05,1.98,0.05c1.3,0.23,2.02,1.06,2.2,2.39c0.11,0.76,0.12,1.53,0.02,2.29l-2.45,0.18c0-0.4,0.03-0.79,0-1.18
	c-0.05-0.49-0.13-0.97-0.25-1.44c-0.09-0.35-0.39-0.47-0.75-0.45c-0.16-0.01-0.31,0.04-0.44,0.14c-0.13,0.1-0.22,0.23-0.25,0.39
	c-0.11,0.34-0.17,0.69-0.19,1.05c-0.01,2.05-0.01,4.11,0.02,6.16c0.02,0.3,0.08,0.59,0.19,0.87c0.04,0.13,0.11,0.24,0.21,0.32
	c0.1,0.08,0.22,0.13,0.35,0.14c0.15,0.03,0.3,0.02,0.44-0.03c0.14-0.05,0.27-0.14,0.36-0.26c0.22-0.34,0.33-0.74,0.34-1.14
	C365.34,35.44,365.35,34.95,365.38,34.44z"/>
<path class="st1" d="M356.16,26.61c0.05-0.01,0.11-0.02,0.16-0.02h2.49v12.44h-2.65V26.61z"/>
<path class="st1" d="M355.93,23.33c0.07-0.32,0.12-0.65,0.21-0.96c0.04-0.14,0.13-0.27,0.23-0.37c0.11-0.1,0.24-0.17,0.39-0.21
	c0.46-0.14,0.94-0.14,1.4,0c0.18,0.05,0.34,0.15,0.47,0.29c0.13,0.14,0.22,0.31,0.26,0.49c0.14,0.51,0.15,1.04,0.05,1.55
	c-0.12,0.63-0.4,0.91-1.04,1c-0.3,0.04-0.6,0.04-0.89,0c-0.63-0.1-0.94-0.46-1-1.09c-0.02-0.22-0.03-0.45-0.04-0.67L355.93,23.33z"
	/>
<g>
	<path class="st0" d="M81.84,52.32c-0.22-0.81-0.64-1.54-1.23-2.14c-0.59-0.59-1.33-1.02-2.14-1.23c-2.98-0.8-14.91-0.8-14.91-0.8
		s-11.92,0-14.89,0.8c-0.81,0.22-1.54,0.64-2.14,1.23c-0.59,0.59-1.02,1.33-1.23,2.14c-0.8,2.98-0.8,9.18-0.8,9.18s0,6.2,0.8,9.18
		c0.22,0.81,0.64,1.54,1.23,2.14c0.59,0.59,1.33,1.02,2.14,1.23c2.98,0.8,14.89,0.8,14.89,0.8s11.92,0,14.9-0.8
		c0.81-0.22,1.54-0.64,2.14-1.23s1.02-1.33,1.23-2.14c0.8-2.98,0.8-9.18,0.8-9.18S82.63,55.3,81.84,52.32z"/>
	<path class="st1" d="M59.75,67.21l9.91-5.71l-9.91-5.72V67.21z"/>
	<path class="st1" d="M99.58,56.62v0.92c0,4.61-2.04,7.31-6.52,7.31h-0.67v8.07h-3.66V50.05h4.66
		C97.64,50.05,99.58,51.86,99.58,56.62z M95.74,56.96c0-3.33-0.6-4.12-2.67-4.12h-0.67v9.29h0.63c1.96,0,2.73-1.42,2.73-4.5
		L95.74,56.96z M108.22,55.95l-0.19,4.35c-1.55-0.33-2.84-0.08-3.41,0.92v11.7h-3.62V56.21h2.89l0.33,3.62h0.12
		c0.38-2.64,1.61-3.98,3.19-3.98c0.23,0.01,0.45,0.04,0.67,0.09L108.22,55.95z M112.39,65.84v0.84c0,2.95,0.16,3.96,1.42,3.96
		c1.2,0,1.47-0.92,1.5-2.84l3.25,0.19c0.24,3.6-1.64,5.21-4.83,5.21c-3.87,0-5.02-2.53-5.02-7.14v-2.92c0-4.86,1.28-7.23,5.13-7.23
		c3.84,0,4.85,2.01,4.85,7.06v2.87L112.39,65.84z M112.39,62.41v1.2h2.76v-1.2c0-3.07-0.22-3.95-1.38-3.95
		C112.6,58.45,112.39,59.35,112.39,62.41L112.39,62.41z M137.42,60.31v12.61h-3.76V60.58c0-1.36-0.36-2.05-1.17-2.05
		c-0.35,0.01-0.69,0.12-0.99,0.31c-0.29,0.19-0.53,0.46-0.69,0.78c0.02,0.22,0.03,0.45,0.03,0.67v12.64h-3.76V60.58
		c0-1.36-0.36-2.05-1.17-2.05c-0.34,0.01-0.68,0.12-0.96,0.31c-0.29,0.19-0.52,0.45-0.67,0.76v13.33h-3.76V56.21h2.97l0.33,2.13
		h0.05c0.85-1.61,2.21-2.48,3.82-2.48c1.61,0,2.48,0.79,2.89,2.21c0.87-1.44,2.18-2.21,3.68-2.21c2.29,0,3.16,1.64,3.16,4.44V60.31z
		 M139.3,51.95c0-1.8,0.65-2.32,2.04-2.32c1.39,0,2.05,0.6,2.05,2.32c0,1.86-0.63,2.32-2.05,2.32c-1.42,0-2.04-0.47-2.04-2.33V51.95
		z M139.52,56.23h3.61v16.72h-3.61V56.23z M155.41,56.23v16.72h-2.94l-0.33-2.05h-0.08c-0.85,1.64-2.07,2.32-3.6,2.32
		c-2.23,0-3.24-1.42-3.24-4.5V56.22h3.76v12.27c0,1.47,0.31,2.07,1.06,2.07c0.34-0.01,0.67-0.12,0.95-0.31s0.51-0.45,0.65-0.76
		V56.22L155.41,56.23z M174.5,60.3v12.62h-3.76V60.58c0-1.36-0.35-2.05-1.17-2.05c-0.35,0.01-0.69,0.12-0.99,0.31
		c-0.29,0.19-0.53,0.46-0.68,0.78c0.02,0.22,0.03,0.45,0.03,0.67v12.63h-3.75V60.58c0-1.36-0.35-2.05-1.17-2.05
		c-0.34,0.01-0.68,0.12-0.96,0.31c-0.29,0.19-0.52,0.45-0.67,0.76v13.33h-3.76V56.21h2.97l0.33,2.13h0.05
		c0.85-1.61,2.21-2.48,3.81-2.48c1.61,0,2.48,0.79,2.89,2.21c0.87-1.45,2.18-2.21,3.68-2.21C173.63,55.86,174.5,57.5,174.5,60.3z"/>
</g>
</svg>
